<?xml version="1.0" encoding="UTF-8" standalone="no"?>
<!DOCTYPE svg PUBLIC "-//W3C//DTD SVG 1.1//EN"
 "http://www.w3.org/Graphics/SVG/1.1/DTD/svg11.dtd">
<!-- Generated by graphviz version 2.40.1 (20161225.0304)
 -->
<!-- Title: dependencies Pages: 1 -->
<svg width="925pt" height="284pt"
 viewBox="0.00 0.00 925.00 284.00" xmlns="http://www.w3.org/2000/svg" xmlns:xlink="http://www.w3.org/1999/xlink">
<g id="graph0" class="graph" transform="scale(1 1) rotate(0) translate(4 280)">
<title>dependencies</title>
<polygon fill="#ffffff" stroke="transparent" points="-4,4 -4,-280 921,-280 921,4 -4,4"/>
<text text-anchor="start" x="437.5091" y="-42.4" font-family="sans-serif" font-weight="bold" font-size="14.00" fill="#000000">Legend</text>
<polygon fill="#ffffb3" stroke="transparent" points="224.5,-10 224.5,-30 244.5,-30 244.5,-10 224.5,-10"/>
<text text-anchor="start" x="248.129" y="-15.4" font-family="sans-serif" font-size="14.00" fill="#000000"> &#160;Declarations</text>
<polygon fill="#8dd3c7" stroke="transparent" points="337.5,-10 337.5,-30 357.5,-30 357.5,-10 337.5,-10"/>
<text text-anchor="start" x="361.2251" y="-15.4" font-family="sans-serif" font-size="14.00" fill="#000000"> &#160;Module</text>
<polygon fill="#80b1d3" stroke="transparent" points="423.5,-10 423.5,-30 443.5,-30 443.5,-10 423.5,-10"/>
<text text-anchor="start" x="447.2812" y="-15.4" font-family="sans-serif" font-size="14.00" fill="#000000"> &#160;Bootstrap</text>
<polygon fill="#fdb462" stroke="transparent" points="520.5,-10 520.5,-30 540.5,-30 540.5,-10 520.5,-10"/>
<text text-anchor="start" x="544.1732" y="-15.4" font-family="sans-serif" font-size="14.00" fill="#000000"> &#160;Providers</text>
<polygon fill="#fb8072" stroke="transparent" points="616.5,-10 616.5,-30 636.5,-30 636.5,-10 616.5,-10"/>
<text text-anchor="start" x="640.2258" y="-15.4" font-family="sans-serif" font-size="14.00" fill="#000000"> &#160;Exports</text>
<g id="clust1" class="cluster">
<title>cluster_SharedModule</title>
<polygon fill="none" stroke="#000000" stroke-dasharray="1,5" points="8,-70 8,-268 909,-268 909,-70 8,-70"/>
</g>
<g id="clust2" class="cluster">
<title>cluster_SharedModule_declarations</title>
<polygon fill="none" stroke="#000000" points="16,-78 16,-130 901,-130 901,-78 16,-78"/>
</g>
<g id="clust11" class="cluster">
<title>cluster_SharedModule_exports</title>
<polygon fill="none" stroke="#000000" points="206,-208 206,-260 729,-260 729,-208 206,-208"/>
</g>
<!-- CapitalizePipe -->
<g id="node1" class="node">
<title>CapitalizePipe</title>
<polygon fill="#ffffb3" stroke="#000000" points="892.6458,-122 795.3542,-122 795.3542,-86 892.6458,-86 892.6458,-122"/>
<text text-anchor="middle" x="844" y="-99.8" font-family="Times,serif" font-size="14.00" fill="#000000">CapitalizePipe</text>
</g>
<!-- SharedModule -->
<g id="node8" class="node">
<title>SharedModule</title>
<polygon fill="#8dd3c7" stroke="#000000" points="509.4231,-187 506.4231,-191 485.4231,-191 482.4231,-187 410.5769,-187 410.5769,-151 509.4231,-151 509.4231,-187"/>
<text text-anchor="middle" x="460" y="-164.8" font-family="Times,serif" font-size="14.00" fill="#000000">SharedModule</text>
</g>
<!-- CapitalizePipe&#45;&gt;SharedModule -->
<g id="edge1" class="edge">
<title>CapitalizePipe&#45;&gt;SharedModule</title>
<path fill="none" stroke="#000000" d="M844,-122.1289C844,-142.5724 844,-173 844,-173 844,-173 519.4152,-173 519.4152,-173"/>
<polygon fill="#000000" stroke="#000000" points="519.4152,-169.5001 509.4152,-173 519.4151,-176.5001 519.4152,-169.5001"/>
</g>
<!-- FilterByStatePipe -->
<g id="node2" class="node">
<title>FilterByStatePipe</title>
<polygon fill="#ffffb3" stroke="#000000" points="776.5479,-122 661.4521,-122 661.4521,-86 776.5479,-86 776.5479,-122"/>
<text text-anchor="middle" x="719" y="-99.8" font-family="Times,serif" font-size="14.00" fill="#000000">FilterByStatePipe</text>
</g>
<!-- FilterByStatePipe&#45;&gt;SharedModule -->
<g id="edge2" class="edge">
<title>FilterByStatePipe&#45;&gt;SharedModule</title>
<path fill="none" stroke="#000000" d="M690.875,-122.2667C690.875,-140.5552 690.875,-166 690.875,-166 690.875,-166 519.2453,-166 519.2453,-166"/>
<polygon fill="#000000" stroke="#000000" points="519.2453,-162.5001 509.2453,-166 519.2453,-169.5001 519.2453,-162.5001"/>
</g>
<!-- FormComponent -->
<g id="node3" class="node">
<title>FormComponent</title>
<polygon fill="#ffffb3" stroke="#000000" points="642.6667,-122 531.3333,-122 531.3333,-86 642.6667,-86 642.6667,-122"/>
<text text-anchor="middle" x="587" y="-99.8" font-family="Times,serif" font-size="14.00" fill="#000000">FormComponent</text>
</g>
<!-- FormComponent&#45;&gt;SharedModule -->
<g id="edge3" class="edge">
<title>FormComponent&#45;&gt;SharedModule</title>
<path fill="none" stroke="#000000" d="M557.375,-122.0091C557.375,-138.0494 557.375,-159 557.375,-159 557.375,-159 519.258,-159 519.258,-159"/>
<polygon fill="#000000" stroke="#000000" points="519.2581,-155.5001 509.258,-159 519.258,-162.5001 519.2581,-155.5001"/>
</g>
<!-- ItemComponent -->
<g id="node4" class="node">
<title>ItemComponent</title>
<polygon fill="#ffffb3" stroke="#000000" points="513.4888,-122 406.5112,-122 406.5112,-86 513.4888,-86 513.4888,-122"/>
<text text-anchor="middle" x="460" y="-99.8" font-family="Times,serif" font-size="14.00" fill="#000000">ItemComponent</text>
</g>
<!-- ItemComponent&#45;&gt;SharedModule -->
<g id="edge4" class="edge">
<title>ItemComponent&#45;&gt;SharedModule</title>
<path fill="none" stroke="#000000" d="M460,-122.1061C460,-122.1061 460,-140.991 460,-140.991"/>
<polygon fill="#000000" stroke="#000000" points="456.5001,-140.9909 460,-150.991 463.5001,-140.991 456.5001,-140.9909"/>
</g>
<!-- NavComponent -->
<g id="node5" class="node">
<title>NavComponent</title>
<polygon fill="#ffffb3" stroke="#000000" points="388.1542,-122 283.8458,-122 283.8458,-86 388.1542,-86 388.1542,-122"/>
<text text-anchor="middle" x="336" y="-99.8" font-family="Times,serif" font-size="14.00" fill="#000000">NavComponent</text>
</g>
<!-- NavComponent&#45;&gt;SharedModule -->
<g id="edge5" class="edge">
<title>NavComponent&#45;&gt;SharedModule</title>
<path fill="none" stroke="#000000" d="M364.0412,-122.0091C364.0412,-138.0494 364.0412,-159 364.0412,-159 364.0412,-159 400.6151,-159 400.6151,-159"/>
<polygon fill="#000000" stroke="#000000" points="400.6152,-162.5001 410.6151,-159 400.6151,-155.5001 400.6152,-162.5001"/>
</g>
<!-- RemoveAccentPipe -->
<g id="node6" class="node">
<title>RemoveAccentPipe</title>
<polygon fill="#ffffb3" stroke="#000000" points="265.6853,-122 138.3147,-122 138.3147,-86 265.6853,-86 265.6853,-122"/>
<text text-anchor="middle" x="202" y="-99.8" font-family="Times,serif" font-size="14.00" fill="#000000">RemoveAccentPipe</text>
</g>
<!-- RemoveAccentPipe&#45;&gt;SharedModule -->
<g id="edge6" class="edge">
<title>RemoveAccentPipe&#45;&gt;SharedModule</title>
<path fill="none" stroke="#000000" d="M239.7579,-122.2667C239.7579,-140.5552 239.7579,-166 239.7579,-166 239.7579,-166 400.5734,-166 400.5734,-166"/>
<polygon fill="#000000" stroke="#000000" points="400.5734,-169.5001 410.5734,-166 400.5733,-162.5001 400.5734,-169.5001"/>
</g>
<!-- StateDirective -->
<g id="node7" class="node">
<title>StateDirective</title>
<polygon fill="#ffffb3" stroke="#000000" points="120.0758,-122 23.9242,-122 23.9242,-86 120.0758,-86 120.0758,-122"/>
<text text-anchor="middle" x="72" y="-99.8" font-family="Times,serif" font-size="14.00" fill="#000000">StateDirective</text>
</g>
<!-- StateDirective&#45;&gt;SharedModule -->
<g id="edge7" class="edge">
<title>StateDirective&#45;&gt;SharedModule</title>
<path fill="none" stroke="#000000" d="M72,-122.1289C72,-142.5724 72,-173 72,-173 72,-173 400.4654,-173 400.4654,-173"/>
<polygon fill="#000000" stroke="#000000" points="400.4655,-176.5001 410.4654,-173 400.4654,-169.5001 400.4655,-176.5001"/>
</g>
<!-- FilterByStatePipe  -->
<g id="node9" class="node">
<title>FilterByStatePipe </title>
<polygon fill="#fb8072" stroke="#000000" points="720.547,-252 601.453,-252 601.453,-216 720.547,-216 720.547,-252"/>
<text text-anchor="middle" x="661" y="-229.8" font-family="Times,serif" font-size="14.00" fill="#000000">FilterByStatePipe </text>
</g>
<!-- SharedModule&#45;&gt;FilterByStatePipe  -->
<g id="edge8" class="edge">
<title>SharedModule&#45;&gt;FilterByStatePipe </title>
<path fill="none" stroke="#000000" stroke-dasharray="5,2" d="M509.5329,-180C557.2196,-180 622.1548,-180 622.1548,-180 622.1548,-180 622.1548,-205.7181 622.1548,-205.7181"/>
<polygon fill="#000000" stroke="#000000" points="618.6549,-205.718 622.1548,-215.7181 625.6549,-205.7181 618.6549,-205.718"/>
</g>
<!-- FormComponent  -->
<g id="node10" class="node">
<title>FormComponent </title>
<polygon fill="#fb8072" stroke="#000000" points="583.6663,-252 468.3337,-252 468.3337,-216 583.6663,-216 583.6663,-252"/>
<text text-anchor="middle" x="526" y="-229.8" font-family="Times,serif" font-size="14.00" fill="#000000">FormComponent </text>
</g>
<!-- SharedModule&#45;&gt;FormComponent  -->
<g id="edge9" class="edge">
<title>SharedModule&#45;&gt;FormComponent </title>
<path fill="none" stroke="#000000" stroke-dasharray="5,2" d="M488.814,-187.1061C488.814,-187.1061 488.814,-205.991 488.814,-205.991"/>
<polygon fill="#000000" stroke="#000000" points="485.3141,-205.9909 488.814,-215.991 492.3141,-205.991 485.3141,-205.9909"/>
</g>
<!-- ItemComponent  -->
<g id="node11" class="node">
<title>ItemComponent </title>
<polygon fill="#fb8072" stroke="#000000" points="450.4899,-252 339.5101,-252 339.5101,-216 450.4899,-216 450.4899,-252"/>
<text text-anchor="middle" x="395" y="-229.8" font-family="Times,serif" font-size="14.00" fill="#000000">ItemComponent </text>
</g>
<!-- SharedModule&#45;&gt;ItemComponent  -->
<g id="edge10" class="edge">
<title>SharedModule&#45;&gt;ItemComponent </title>
<path fill="none" stroke="#000000" stroke-dasharray="5,2" d="M430.5167,-187.1061C430.5167,-187.1061 430.5167,-205.991 430.5167,-205.991"/>
<polygon fill="#000000" stroke="#000000" points="427.0167,-205.9909 430.5167,-215.991 434.0167,-205.991 427.0167,-205.9909"/>
</g>
<!-- NavComponent  -->
<g id="node12" class="node">
<title>NavComponent </title>
<polygon fill="#fb8072" stroke="#000000" points="322.1537,-252 213.8463,-252 213.8463,-216 322.1537,-216 322.1537,-252"/>
<text text-anchor="middle" x="268" y="-229.8" font-family="Times,serif" font-size="14.00" fill="#000000">NavComponent </text>
</g>
<!-- SharedModule&#45;&gt;NavComponent  -->
<g id="edge11" class="edge">
<title>SharedModule&#45;&gt;NavComponent </title>
<path fill="none" stroke="#000000" stroke-dasharray="5,2" d="M410.7158,-180C364.6362,-180 302.875,-180 302.875,-180 302.875,-180 302.875,-205.7181 302.875,-205.7181"/>
<polygon fill="#000000" stroke="#000000" points="299.3751,-205.718 302.875,-215.7181 306.3751,-205.7181 299.3751,-205.718"/>
</g>
</g>
</svg>
