<?xml version="1.0" encoding="UTF-8" standalone="no"?>
<!DOCTYPE svg PUBLIC "-//W3C//DTD SVG 1.1//EN"
 "http://www.w3.org/Graphics/SVG/1.1/DTD/svg11.dtd">
<!-- Generated by graphviz version 2.40.1 (20161225.0304)
 -->
<!-- Title: dependencies Pages: 1 -->
<svg width="840pt" height="284pt"
 viewBox="0.00 0.00 840.00 284.00" xmlns="http://www.w3.org/2000/svg" xmlns:xlink="http://www.w3.org/1999/xlink">
<g id="graph0" class="graph" transform="scale(1 1) rotate(0) translate(4 280)">
<title>dependencies</title>
<polygon fill="#ffffff" stroke="transparent" points="-4,4 -4,-280 836,-280 836,4 -4,4"/>
<text text-anchor="start" x="395.0091" y="-42.4" font-family="sans-serif" font-weight="bold" font-size="14.00" fill="#000000">Legend</text>
<polygon fill="#ffffb3" stroke="transparent" points="182,-10 182,-30 202,-30 202,-10 182,-10"/>
<text text-anchor="start" x="205.629" y="-15.4" font-family="sans-serif" font-size="14.00" fill="#000000"> &#160;Declarations</text>
<polygon fill="#8dd3c7" stroke="transparent" points="295,-10 295,-30 315,-30 315,-10 295,-10"/>
<text text-anchor="start" x="318.7251" y="-15.4" font-family="sans-serif" font-size="14.00" fill="#000000"> &#160;Module</text>
<polygon fill="#80b1d3" stroke="transparent" points="381,-10 381,-30 401,-30 401,-10 381,-10"/>
<text text-anchor="start" x="404.7812" y="-15.4" font-family="sans-serif" font-size="14.00" fill="#000000"> &#160;Bootstrap</text>
<polygon fill="#fdb462" stroke="transparent" points="478,-10 478,-30 498,-30 498,-10 478,-10"/>
<text text-anchor="start" x="501.6732" y="-15.4" font-family="sans-serif" font-size="14.00" fill="#000000"> &#160;Providers</text>
<polygon fill="#fb8072" stroke="transparent" points="574,-10 574,-30 594,-30 594,-10 574,-10"/>
<text text-anchor="start" x="597.7258" y="-15.4" font-family="sans-serif" font-size="14.00" fill="#000000"> &#160;Exports</text>
<g id="clust1" class="cluster">
<title>cluster_ItemsModule</title>
<polygon fill="none" stroke="#000000" stroke-dasharray="1,5" points="8,-70 8,-268 824,-268 824,-70 8,-70"/>
</g>
<g id="clust2" class="cluster">
<title>cluster_ItemsModule_declarations</title>
<polygon fill="none" stroke="#000000" points="292,-78 292,-130 816,-130 816,-78 292,-78"/>
</g>
<g id="clust7" class="cluster">
<title>cluster_ItemsModule_imports</title>
<polygon fill="none" stroke="#000000" points="16,-78 16,-130 284,-130 284,-78 16,-78"/>
</g>
<g id="clust8" class="cluster">
<title>cluster_ItemsModule_exports</title>
<polygon fill="none" stroke="#000000" points="289,-208 289,-260 550,-260 550,-208 289,-208"/>
</g>
<!-- AbstractComponent -->
<g id="node1" class="node">
<title>AbstractComponent</title>
<polygon fill="#ffffb3" stroke="#000000" points="808.2548,-122 679.7452,-122 679.7452,-86 808.2548,-86 808.2548,-122"/>
<text text-anchor="middle" x="744" y="-99.8" font-family="Times,serif" font-size="14.00" fill="#000000">AbstractComponent</text>
</g>
<!-- ItemsModule -->
<g id="node5" class="node">
<title>ItemsModule</title>
<polygon fill="#8dd3c7" stroke="#000000" points="468.1515,-187 465.1515,-191 444.1515,-191 441.1515,-187 377.8485,-187 377.8485,-151 468.1515,-151 468.1515,-187"/>
<text text-anchor="middle" x="423" y="-164.8" font-family="Times,serif" font-size="14.00" fill="#000000">ItemsModule</text>
</g>
<!-- AbstractComponent&#45;&gt;ItemsModule -->
<g id="edge1" class="edge">
<title>AbstractComponent&#45;&gt;ItemsModule</title>
<path fill="none" stroke="#000000" d="M744,-122.2843C744,-143.3211 744,-175 744,-175 744,-175 478.3106,-175 478.3106,-175"/>
<polygon fill="#000000" stroke="#000000" points="478.3107,-171.5001 468.3106,-175 478.3106,-178.5001 478.3107,-171.5001"/>
</g>
<!-- AddComponent -->
<g id="node2" class="node">
<title>AddComponent</title>
<polygon fill="#ffffb3" stroke="#000000" points="661.9399,-122 556.0601,-122 556.0601,-86 661.9399,-86 661.9399,-122"/>
<text text-anchor="middle" x="609" y="-99.8" font-family="Times,serif" font-size="14.00" fill="#000000">AddComponent</text>
</g>
<!-- AddComponent&#45;&gt;ItemsModule -->
<g id="edge2" class="edge">
<title>AddComponent&#45;&gt;ItemsModule</title>
<path fill="none" stroke="#000000" d="M609,-122.0225C609,-139.3734 609,-163 609,-163 609,-163 478.5007,-163 478.5007,-163"/>
<polygon fill="#000000" stroke="#000000" points="478.5008,-159.5001 468.5007,-163 478.5007,-166.5001 478.5008,-159.5001"/>
</g>
<!-- ListComponent -->
<g id="node3" class="node">
<title>ListComponent</title>
<polygon fill="#ffffb3" stroke="#000000" points="538.6109,-122 435.3891,-122 435.3891,-86 538.6109,-86 538.6109,-122"/>
<text text-anchor="middle" x="487" y="-99.8" font-family="Times,serif" font-size="14.00" fill="#000000">ListComponent</text>
</g>
<!-- ListComponent&#45;&gt;ItemsModule -->
<g id="edge3" class="edge">
<title>ListComponent&#45;&gt;ItemsModule</title>
<path fill="none" stroke="#000000" d="M451.885,-122.1061C451.885,-122.1061 451.885,-140.991 451.885,-140.991"/>
<polygon fill="#000000" stroke="#000000" points="448.3851,-140.9909 451.885,-150.991 455.3851,-140.991 448.3851,-140.9909"/>
</g>
<!-- LivresComponent -->
<g id="node4" class="node">
<title>LivresComponent</title>
<polygon fill="#ffffb3" stroke="#000000" points="417.5954,-122 300.4046,-122 300.4046,-86 417.5954,-86 417.5954,-122"/>
<text text-anchor="middle" x="359" y="-99.8" font-family="Times,serif" font-size="14.00" fill="#000000">LivresComponent</text>
</g>
<!-- LivresComponent&#45;&gt;ItemsModule -->
<g id="edge4" class="edge">
<title>LivresComponent&#45;&gt;ItemsModule</title>
<path fill="none" stroke="#000000" d="M397.6111,-122.1061C397.6111,-122.1061 397.6111,-140.991 397.6111,-140.991"/>
<polygon fill="#000000" stroke="#000000" points="394.1112,-140.9909 397.6111,-150.991 401.1112,-140.991 394.1112,-140.9909"/>
</g>
<!-- ListComponent  -->
<g id="node8" class="node">
<title>ListComponent </title>
<polygon fill="#fb8072" stroke="#000000" points="542.1115,-252 435.8885,-252 435.8885,-216 542.1115,-216 542.1115,-252"/>
<text text-anchor="middle" x="489" y="-229.8" font-family="Times,serif" font-size="14.00" fill="#000000">ListComponent </text>
</g>
<!-- ItemsModule&#45;&gt;ListComponent  -->
<g id="edge7" class="edge">
<title>ItemsModule&#45;&gt;ListComponent </title>
<path fill="none" stroke="#000000" stroke-dasharray="5,2" d="M452.01,-187.1061C452.01,-187.1061 452.01,-205.991 452.01,-205.991"/>
<polygon fill="#000000" stroke="#000000" points="448.5101,-205.9909 452.01,-215.991 455.5101,-205.991 448.5101,-205.9909"/>
</g>
<!-- LivresComponent  -->
<g id="node9" class="node">
<title>LivresComponent </title>
<polygon fill="#fb8072" stroke="#000000" points="417.0961,-252 296.9039,-252 296.9039,-216 417.0961,-216 417.0961,-252"/>
<text text-anchor="middle" x="357" y="-229.8" font-family="Times,serif" font-size="14.00" fill="#000000">LivresComponent </text>
</g>
<!-- ItemsModule&#45;&gt;LivresComponent  -->
<g id="edge8" class="edge">
<title>ItemsModule&#45;&gt;LivresComponent </title>
<path fill="none" stroke="#000000" stroke-dasharray="5,2" d="M397.4861,-187.1061C397.4861,-187.1061 397.4861,-205.991 397.4861,-205.991"/>
<polygon fill="#000000" stroke="#000000" points="393.9862,-205.9909 397.4861,-215.991 400.9862,-205.991 393.9862,-205.9909"/>
</g>
<!-- ItemsRoutingModule -->
<g id="node6" class="node">
<title>ItemsRoutingModule</title>
<polygon fill="#8dd3c7" stroke="#000000" points="275.7688,-122 272.7688,-126 251.7688,-126 248.7688,-122 140.2312,-122 140.2312,-86 275.7688,-86 275.7688,-122"/>
<text text-anchor="middle" x="208" y="-99.8" font-family="Times,serif" font-size="14.00" fill="#000000">ItemsRoutingModule</text>
</g>
<!-- ItemsRoutingModule&#45;&gt;ItemsModule -->
<g id="edge5" class="edge">
<title>ItemsRoutingModule&#45;&gt;ItemsModule</title>
<path fill="none" stroke="#000000" d="M208,-122.0225C208,-139.3734 208,-163 208,-163 208,-163 367.6667,-163 367.6667,-163"/>
<polygon fill="#000000" stroke="#000000" points="367.6668,-166.5001 377.6667,-163 367.6667,-159.5001 367.6668,-166.5001"/>
</g>
<!-- SharedModule -->
<g id="node7" class="node">
<title>SharedModule</title>
<polygon fill="#8dd3c7" stroke="#000000" points="122.4231,-122 119.4231,-126 98.4231,-126 95.4231,-122 23.5769,-122 23.5769,-86 122.4231,-86 122.4231,-122"/>
<text text-anchor="middle" x="73" y="-99.8" font-family="Times,serif" font-size="14.00" fill="#000000">SharedModule</text>
</g>
<!-- SharedModule&#45;&gt;ItemsModule -->
<g id="edge6" class="edge">
<title>SharedModule&#45;&gt;ItemsModule</title>
<path fill="none" stroke="#000000" d="M73,-122.2843C73,-143.3211 73,-175 73,-175 73,-175 367.6024,-175 367.6024,-175"/>
<polygon fill="#000000" stroke="#000000" points="367.6025,-178.5001 377.6024,-175 367.6024,-171.5001 367.6025,-178.5001"/>
</g>
</g>
</svg>
